# xmcd CD database file
#
# Track frame offsets:
#	150
#	11339
#	24528
#	36598
#	50025
#	63959
#	77784
#	91963
#	105940
#	119875
#	133928
#	148540
#	164144
#	179028
#	192099
#	205922
#	219958
#	233141
#	248163
#	263042
#	276437
#	290974
#	305755
#	321124
#
# Disc length: 4475 seconds
#
# Revision: 0
# Processed by: cddbd v1.5PL3 Copyright (c) Steve Scherf et al.
# Submitted via: CDex 1.51
#
DISCID=78117918
DTITLE=Billie Holiday - Blue Billie
DYEAR=2003
DGENRE=Jazz
TTITLE0=Big City Blues (Saddest Tale)
TTITLE1=Summertime
TTITLE2=Billie's Blues
TTITLE3=I Must Have That Man
TTITLE4=Moanin' Low
TTITLE5=They Can't Take That Away From Me
TTITLE6=Mean To Me
TTITLE7=I'll Never Be The Same
TTITLE8=My Man (Mon Homme)
TTITLE9=Long Gone Blues
TTITLE10=Strange Fruit
TTITLE11=Yesterdays
TTITLE12=Fine And Mellow
TTITLE13=I Gotta Right To Sing The Blues
TTITLE14=Some Ohter Spring
TTITLE15=The Man I Love
TTITLE16=St. Louis Blues
TTITLE17=Georgia On My Mind
TTITLE18=Solitude
TTITLE19=I Cover The Waterfront
TTITLE20=Gloomy Sunday
TTITLE21=Trav'lin' Light
TTITLE22=Don't Explain
TTITLE23=God Bless The Child
EXTD=YEAR: 2003
EXTT0=
EXTT1=
EXTT2=
EXTT3=
EXTT4=
EXTT5=
EXTT6=
EXTT7=
EXTT8=
EXTT9=
EXTT10=
EXTT11=
EXTT12=
EXTT13=
EXTT14=
EXTT15=
EXTT16=
EXTT17=
EXTT18=
EXTT19=
EXTT20=
EXTT21=
EXTT22=
EXTT23=
PLAYORDER=
